<svg xmlns="http://www.w3.org/2000/svg" viewBox="0 0 1600 900" role="img" aria-label="系统演示视频封面">
  <defs>
    <linearGradient id="bg" x1="0" y1="0" x2="1" y2="1">
      <stop offset="0" stop-color="#14211d"/>
      <stop offset="0.52" stop-color="#223a35"/>
      <stop offset="1" stop-color="#111916"/>
    </linearGradient>
    <pattern id="grid" width="72" height="72" patternUnits="userSpaceOnUse">
      <path d="M72 0H0v72" fill="none" stroke="#fffaf1" stroke-opacity=".08" stroke-width="2"/>
    </pattern>
  </defs>
  <rect width="1600" height="900" fill="url(#bg)"/>
  <rect width="1600" height="900" fill="url(#grid)"/>
  <path d="M210 685c160-122 294-185 402-189 96-3 149 43 238 38 129-8 195-119 328-137 83-12 160 14 232 78" fill="none" stroke="#fffaf1" stroke-opacity=".28" stroke-width="6"/>
  <path d="M246 586c128-78 231-116 309-114 113 4 168 91 272 84 131-9 196-159 333-178 83-11 166 26 248 112" fill="none" stroke="#d75054" stroke-opacity=".72" stroke-width="8"/>
  <circle cx="801" cy="450" r="98" fill="#fffaf1" fill-opacity=".94"/>
  <path d="M779 397v106l86-53z" fill="#b3292e"/>
  <text x="92" y="126" fill="#fffaf1" font-size="54" font-family="Songti SC, STSong, serif" font-weight="700">系统演示视频</text>
  <text x="94" y="188" fill="#fffaf1" fill-opacity=".7" font-size="28" font-family="Songti SC, STSong, serif">Graduation Project Demo</text>
</svg>
